<?xml version="1.0" encoding="utf-8"?>
<!-- Generator: Adobe Illustrator 16.0.0, SVG Export Plug-In . SVG Version: 6.00 Build 0)  -->
<!DOCTYPE svg PUBLIC "-//W3C//DTD SVG 1.1//EN" "http://www.w3.org/Graphics/SVG/1.1/DTD/svg11.dtd">
<svg version="1.1" id="Layer_1" xmlns="http://www.w3.org/2000/svg" xmlns:xlink="http://www.w3.org/1999/xlink" x="0px" y="0px"
	 width="24px" height="24px" viewBox="0 0 24 24" enable-background="new 0 0 24 24" xml:space="preserve">
<path fill-rule="evenodd" clip-rule="evenodd" fill="#191717" d="M12,0.991c-6.233,0-11.288,5.054-11.288,11.289
	c0,4.987,3.234,9.219,7.72,10.711c0.564,0.104,0.77-0.245,0.77-0.545c0-0.268-0.009-0.978-0.015-1.92
	c-3.14,0.683-3.802-1.513-3.802-1.513c-0.513-1.303-1.253-1.651-1.253-1.651c-1.025-0.7,0.077-0.687,0.077-0.687
	c1.133,0.08,1.729,1.164,1.729,1.164c1.007,1.726,2.643,1.228,3.286,0.938c0.102-0.729,0.394-1.227,0.717-1.509
	c-2.507-0.285-5.142-1.253-5.142-5.579c0-1.233,0.44-2.241,1.162-3.029C5.844,8.374,5.456,7.226,6.07,5.672
	c0,0,0.948-0.303,3.104,1.157c0.901-0.25,1.866-0.376,2.827-0.38c0.959,0.004,1.924,0.129,2.825,0.38
	c2.156-1.46,3.104-1.157,3.104-1.157c0.614,1.554,0.227,2.702,0.11,2.988c0.725,0.789,1.16,1.796,1.16,3.029
	c0,4.336-2.639,5.291-5.154,5.571c0.406,0.348,0.766,1.036,0.766,2.089c0,1.509-0.013,2.728-0.013,3.097
	c0,0.303,0.203,0.653,0.775,0.544c4.483-1.496,7.714-5.725,7.714-10.71C23.288,6.044,18.234,0.991,12,0.991z"/>
</svg>
