<svg width="64" height="64" viewBox="0 0 64 64" fill="none" xmlns="http://www.w3.org/2000/svg">
<path d="M29.5275 62L30.6813 38.2637L22.7692 60.6813L18.1538 58.8681L28.3736 37.2747L12.5495 55.0769L8.92308 51.4505L26.7253 35.6264L5.13187 45.8461L3.31868 41.2308L25.7363 33.3187L2 34.4725V29.5275L25.7363 30.8461L3.31868 22.7692L5.13187 18.3187L26.7253 28.5385L8.92308 12.5494L12.5495 9.08791L28.3736 26.7253L18.1538 5.2967L22.7692 3.31868L30.6813 25.9011L29.5275 2H34.4725L33.1538 25.7363L41.2308 3.31868L45.6813 5.2967L35.4615 26.7253L51.4505 9.08791L54.9121 12.5494L37.2747 28.5385L58.7033 18.3187L60.6813 22.7692L38.0989 30.8461L62 29.5275V34.4725L38.0989 33.3187L60.6813 41.2308L58.7033 45.8461L37.2747 35.6264L54.9121 51.4505L51.4505 55.0769L35.4615 37.2747L45.6813 58.8681L41.2308 60.6813L33.1538 38.2637L34.4725 62H29.5275Z" fill="#E6E6E6"/>
</svg>
