<?xml version="1.0" encoding="UTF-8" standalone="no"?>
<svg
   xmlns:dc="http://purl.org/dc/elements/1.1/"
   xmlns:cc="http://creativecommons.org/ns#"
   xmlns:rdf="http://www.w3.org/1999/02/22-rdf-syntax-ns#"
   xmlns:svg="http://www.w3.org/2000/svg"
   xmlns="http://www.w3.org/2000/svg"
   viewBox="0 0 250 250"
   height="24"
   width="24"
   xml:space="preserve"
   version="1.1"
   id="svg2"><metadata
     id="metadata8"><rdf:RDF><cc:Work
         rdf:about=""><dc:format>image/svg+xml</dc:format><dc:type
           rdf:resource="http://purl.org/dc/dcmitype/StillImage" /></cc:Work></rdf:RDF></metadata><defs
     id="defs6" /><g
     transform="matrix(1.25,0,0,-1.25,0,250)"
     id="g10"><g
       transform="scale(0.1,0.1)"
       id="g12"><path
         id="path14"
         style="fill:#231f20;fill-opacity:1;fill-rule:nonzero;stroke:none"
         d="m 1489.12,1272.48 -38.69,0 c -14.37,0 -30.95,-18.79 -30.95,-32.06 l 0,-480.811 c 0,-13.277 16.58,-33.16 30.95,-33.16 l 38.69,0 0,-111.648 -347.08,0 0,111.648 69.64,0 0,505.131 -3.32,0 -171.33,-616.779 -132.643,0 -169.117,616.779 -3.317,0 0,-505.131 72.953,0 0,-111.648 -294.023,0 0,111.648 37.578,0 c 15.48,0 32.059,19.883 32.059,33.16 l 0,480.811 c 0,13.27 -16.579,32.06 -32.059,32.06 l -37.578,0 0,116.06 366.972,0 120.485,-448.77 3.32,0 121.59,448.77 365.87,0 0,-116.06 z M 0,2000 0,0 l 2000,0 0,2000 -2000,0" /></g></g></svg>