<?xml version="1.0" encoding="UTF-8" standalone="no"?>
<svg width="360px" height="360px" viewBox="0 0 360 360" version="1.1" xmlns="http://www.w3.org/2000/svg" xmlns:xlink="http://www.w3.org/1999/xlink" xmlns:sketch="http://www.bohemiancoding.com/sketch/ns">
    <!-- Generator: Sketch 3.3.2 (12043) - http://www.bohemiancoding.com/sketch -->
    <title>icon</title>
    <desc>Created with Sketch.</desc>
    <defs>
        <filter x="-50%" y="-50%" width="200%" height="200%" filterUnits="objectBoundingBox" id="filter-1">
            <feMorphology radius="1" in="SourceAlpha" operator="dilate" result="shadowSpreadOuter1"></feMorphology>
            <feOffset dx="1" dy="1" in="shadowSpreadOuter1" result="shadowOffsetOuter1"></feOffset>
            <feGaussianBlur stdDeviation="2" in="shadowOffsetOuter1" result="shadowBlurOuter1"></feGaussianBlur>
            <feColorMatrix values="0 0 0 0 0   0 0 0 0 0   0 0 0 0 0  0 0 0 0.35 0" in="shadowBlurOuter1" type="matrix" result="shadowMatrixOuter1"></feColorMatrix>
            <feMerge>
                <feMergeNode in="shadowMatrixOuter1"></feMergeNode>
                <feMergeNode in="SourceGraphic"></feMergeNode>
            </feMerge>
        </filter>
        <rect id="path-2" x="0" y="0" width="350" height="350" rx="80"></rect>
    </defs>
    <g id="Page-1" stroke="none" stroke-width="1" fill="none" fill-rule="evenodd" sketch:type="MSPage">
        <g id="icon" sketch:type="MSLayerGroup" transform="translate(4.000000, 4.000000)">
            <g id="wrist-watch">
                <mask id="mask-3" sketch:name="Rectangle 1" fill="white">
                    <use xlink:href="#path-2"></use>
                </mask>
                <use id="Rectangle-1" fill="white" filter="url(#filter-1)" sketch:type="MSShapeGroup" xlink:href="#path-2"></use>
                <rect id="Rectangle-1" fill="#F14934" sketch:type="MSShapeGroup" mask="url(#mask-3)" x="0" y="-0.209125475" width="350" height="350.418251"></rect>
                <path d="M239.792418,53.7239024 L110.207582,53.7239024 L58.9380509,110.691707 L58.9380509,239.312683 L110.207582,296.271707 L239.792418,296.271707 L291.057567,239.312683 L291.057567,110.691707 L239.792418,53.7239024 L239.792418,53.7239024 Z M260.041692,234.781951 C260.041692,240.660488 254.76575,245.445854 248.275992,245.445854 L101.719626,245.445854 C95.2342498,245.445854 89.9539263,240.660488 89.9539263,234.781951 L89.9539263,115.218049 C89.9539263,109.339512 95.2298678,104.554146 101.719626,104.554146 L248.275992,104.554146 C254.761368,104.554146 260.041692,109.339512 260.041692,115.218049 L260.041692,234.781951 L260.041692,234.781951 Z" id="Shape" fill="#FFFFFF" sketch:type="MSShapeGroup" mask="url(#mask-3)"></path>
                <path d="M54.2054788,152.478049 L48.2809996,152.478049 C42.8253956,152.478049 38.3908003,148.035122 38.3908003,142.573659 L38.3908003,124.639512 C38.3908003,119.173659 42.8297776,114.730732 48.2809996,114.730732 L54.2054788,114.730732 C59.6567007,114.730732 64.0912961,119.178049 64.0912961,124.639512 L64.0912961,142.573659 C64.0912961,148.035122 59.6567007,152.478049 54.2054788,152.478049 L54.2054788,152.478049 Z M48.2809996,123.506829 C47.658754,123.506829 47.1548227,124.011707 47.1548227,124.635122 L47.1548227,142.569268 C47.1548227,143.188293 47.658754,143.693171 48.2809996,143.693171 L54.2054788,143.693171 C54.8233423,143.693171 55.3272736,143.188293 55.3272736,142.569268 L55.3272736,124.635122 C55.3272736,124.011707 54.8233423,123.506829 54.2054788,123.506829 L48.2809996,123.506829 L48.2809996,123.506829 Z" id="Shape" fill="#FFFFFF" sketch:type="MSShapeGroup" mask="url(#mask-3)"></path>
                <path d="M54.2054788,235.273659 L48.2809996,235.273659 C42.8253956,235.273659 38.3908003,230.826341 38.3908003,225.360488 L38.3908003,207.426341 C38.3908003,201.960488 42.8297776,197.513171 48.2809996,197.513171 L54.2054788,197.513171 C59.6567007,197.513171 64.0912961,201.960488 64.0912961,207.426341 L64.0912961,225.360488 C64.0912961,230.826341 59.6567007,235.273659 54.2054788,235.273659 L54.2054788,235.273659 Z M48.2809996,206.293659 C47.658754,206.293659 47.1548227,206.798537 47.1548227,207.426341 L47.1548227,225.360488 C47.1548227,225.988293 47.658754,226.493171 48.2809996,226.493171 L54.2054788,226.493171 C54.8233423,226.493171 55.3272736,225.988293 55.3272736,225.360488 L55.3272736,207.426341 C55.3272736,206.798537 54.8233423,206.293659 54.2054788,206.293659 L48.2809996,206.293659 L48.2809996,206.293659 Z" id="Shape" fill="#FFFFFF" sketch:type="MSShapeGroup" mask="url(#mask-3)"></path>
                <path d="M301.719,193.878049 L295.798903,193.878049 C290.343299,193.878049 285.904322,189.430732 285.904322,183.969268 L285.904322,166.030732 C285.904322,160.564878 290.343299,156.121951 295.798903,156.121951 L301.719,156.121951 C307.174604,156.121951 311.613582,160.569268 311.613582,166.030732 L311.613582,183.969268 C311.613582,189.430732 307.174604,193.878049 301.719,193.878049 L301.719,193.878049 Z M295.798903,164.902439 C295.172276,164.902439 294.668344,165.407317 294.668344,166.030732 L294.668344,183.969268 C294.668344,184.592683 295.172276,185.097561 295.798903,185.097561 L301.719,185.097561 C302.345628,185.097561 302.849559,184.592683 302.849559,183.969268 L302.849559,166.030732 C302.849559,165.407317 302.345628,164.902439 301.719,164.902439 L295.798903,164.902439 L295.798903,164.902439 Z" id="Shape" fill="#FFFFFF" sketch:type="MSShapeGroup" mask="url(#mask-3)"></path>
                <path d="M122.047776,24.9063415 C117.595653,36.8741463 113.494091,45.4439024 113.494091,45.4439024 L236.501527,45.4439024 C236.501527,45.4439024 232.404347,36.8741463 227.956606,24.9063415 L122.047776,24.9063415 L122.047776,24.9063415 Z" id="Shape" fill="#FFFFFF" sketch:type="MSShapeGroup" mask="url(#mask-3)"></path>
                <path d="M224.713917,15.6604878 C222.557968,9.12780488 220.529097,2.0902439 219.074269,-4.87707317 L130.925731,-4.87707317 C129.475285,2.0902439 127.446414,9.12341463 125.286083,15.6604878 L224.713917,15.6604878 L224.713917,15.6604878 Z" id="Shape" fill="#FFFFFF" sketch:type="MSShapeGroup" mask="url(#mask-3)"></path>
                <path d="M122.047776,325.093659 C117.595653,313.125854 113.494091,304.556098 113.494091,304.556098 L236.501527,304.556098 C236.501527,304.556098 232.404347,313.125854 227.956606,325.093659 L122.047776,325.093659 L122.047776,325.093659 Z" id="Shape" fill="#FFFFFF" sketch:type="MSShapeGroup" mask="url(#mask-3)"></path>
                <path d="M224.713917,334.339512 C222.557968,340.867805 220.529097,347.909756 219.074269,354.877073 L130.925731,354.877073 C129.475285,347.909756 127.446414,340.872195 125.286083,334.339512 L224.713917,334.339512 L224.713917,334.339512 Z" id="Shape" fill="#FFFFFF" sketch:type="MSShapeGroup" mask="url(#mask-3)"></path>
                <path d="M231.357046,235.238537 L118.642954,235.238537 C107.030624,235.238537 97.5830078,225.233171 97.5830078,212.936098 L97.5830078,137.068293 C97.5830078,124.77122 107.030624,114.761463 118.642954,114.761463 L231.361428,114.761463 C242.969376,114.761463 252.421374,124.766829 252.421374,137.068293 L252.421374,212.936098 C252.416992,225.22878 242.969376,235.238537 231.357046,235.238537 L231.357046,235.238537 Z M118.642954,123.541951 C111.863982,123.541951 106.34703,129.609268 106.34703,137.068293 L106.34703,212.936098 C106.34703,220.390732 111.863982,226.458049 118.642954,226.458049 L231.361428,226.458049 C238.1404,226.458049 243.657352,220.390732 243.657352,212.936098 L243.657352,137.068293 C243.657352,129.609268 238.1404,123.541951 231.361428,123.541951 L118.642954,123.541951 L118.642954,123.541951 Z" id="Shape" fill="#FFFFFF" sketch:type="MSShapeGroup" mask="url(#mask-3)"></path>
                <path d="M148.280899,204.267578 L134.008439,204.267578 L134.008439,163.112305 L121.109024,163.112305 L121.109024,151.441406 L161.144181,151.441406 L161.144181,163.112305 L148.280899,163.112305 L148.280899,204.267578 Z" id="T" fill="#FFFFFF" sketch:type="MSShapeGroup" mask="url(#mask-3)"></path>
                <path d="M191.827499,204.267578 L181.023788,166.219727 L180.698593,166.219727 C181.204455,172.699577 181.457382,177.734032 181.457382,181.323242 L181.457382,204.267578 L168.810897,204.267578 L168.810897,151.441406 L187.816757,151.441406 L198.837265,188.947266 L199.126327,188.947266 L209.930038,151.441406 L228.97203,151.441406 L228.97203,204.267578 L215.855819,204.267578 L215.855819,181.106445 C215.855819,179.902012 215.873886,178.565112 215.910019,177.095703 C215.946152,175.626295 216.108748,172.025094 216.397811,166.291992 L216.072616,166.291992 L205.413436,204.267578 L191.827499,204.267578 Z" id="M" fill="#FFFFFF" sketch:type="MSShapeGroup" mask="url(#mask-3)"></path>
            </g>
        </g>
    </g>
</svg>