<?xml version="1.0" encoding="utf-8"?>
<!-- Generator: Adobe Illustrator 16.0.0, SVG Export Plug-In . SVG Version: 6.00 Build 0)  -->
<!DOCTYPE svg PUBLIC "-//W3C//DTD SVG 1.1//EN" "http://www.w3.org/Graphics/SVG/1.1/DTD/svg11.dtd">
<svg version="1.1" id="Layer_1" xmlns="http://www.w3.org/2000/svg" xmlns:xlink="http://www.w3.org/1999/xlink" x="0px" y="0px"
	 width="24px" height="24px" viewBox="0 0 24 24" enable-background="new 0 0 24 24" xml:space="preserve">
<path fill="#5FA9DD" d="M23.309,4.986c-0.831,0.369-1.726,0.618-2.664,0.73c0.957-0.574,1.693-1.484,2.04-2.567
	c-0.896,0.532-1.89,0.918-2.946,1.126c-0.848-0.901-2.054-1.465-3.388-1.465c-2.562,0-4.641,2.078-4.641,4.64
	c0,0.363,0.042,0.718,0.12,1.057C7.974,8.314,4.555,6.466,2.267,3.659C1.867,4.344,1.638,5.142,1.638,5.992
	c0,1.61,0.819,3.03,2.064,3.862C2.941,9.83,2.226,9.621,1.601,9.274C1.6,9.293,1.6,9.312,1.6,9.332c0,2.248,1.601,4.124,3.723,4.55
	c-0.39,0.105-0.8,0.162-1.223,0.162c-0.299,0-0.59-0.028-0.873-0.083c0.591,1.844,2.305,3.186,4.335,3.223
	c-1.589,1.245-3.589,1.986-5.763,1.986c-0.375,0-0.744-0.021-1.107-0.065c2.054,1.317,4.493,2.086,7.113,2.086
	c8.535,0,13.203-7.071,13.203-13.203c0-0.201-0.005-0.401-0.015-0.6C21.901,6.733,22.687,5.916,23.309,4.986z"/>
</svg>
